<svg xmlns="http://www.w3.org/2000/svg" viewBox="0 0 64 64" fill="none">
  <defs>
    <linearGradient id="bottleGrad" x1="0%" y1="0%" x2="100%" y2="100%">
      <stop offset="0%" style="stop-color:#4a5568;stop-opacity:1" />
      <stop offset="100%" style="stop-color:#2d3748;stop-opacity:1" />
    </linearGradient>
    <linearGradient id="wineGrad" x1="0%" y1="0%" x2="0%" y2="100%">
      <stop offset="0%" style="stop-color:#9b2c2c;stop-opacity:1" />
      <stop offset="100%" style="stop-color:#742a2a;stop-opacity:1" />
    </linearGradient>
  </defs>
  <!-- Bottle body -->
  <path d="M26 8 L26 16 C22 18 20 22 20 28 L20 54 C20 58 23 60 28 60 L36 60 C41 60 44 58 44 54 L44 28 C44 22 42 18 38 16 L38 8 Z" fill="url(#bottleGrad)" stroke="#1a202c" stroke-width="1"/>
  <!-- Wine level -->
  <path d="M22 32 L22 54 C22 56 24 58 28 58 L36 58 C40 58 42 56 42 54 L42 32 C42 30 40 30 32 30 C24 30 22 30 22 32 Z" fill="url(#wineGrad)"/>
  <!-- Cork -->
  <rect x="28" y="4" width="8" height="6" rx="1" fill="#d69e2e"/>
  <!-- Highlight -->
  <path d="M24 20 L24 50" stroke="rgba(255,255,255,0.2)" stroke-width="2" stroke-linecap="round"/>
  <!-- Label -->
  <rect x="24" y="38" width="16" height="12" rx="1" fill="#f7fafc" stroke="#e2e8f0"/>
  <line x1="26" y1="42" x2="38" y2="42" stroke="#cbd5e0" stroke-width="1"/>
  <line x1="26" y1="46" x2="34" y2="46" stroke="#cbd5e0" stroke-width="1"/>
</svg>
